# xmcd
#
# Track frame offsets:
#        150
#        17910
#        35350
#        50952
#        69232
#        82322
#        100530
#        122290
#        139880
#        159337
#        174990
#        204740
#        220510
#        248962
#
# Disc length: 3565 seconds
#
# Revision: 0
# Processed by: cddbd v1.5.1PL0 Copyright (c) Steve Scherf et al.
# Submitted via: ExactAudioCopy v0.95a5
#
DISCID=bd0deb0e
DTITLE=Sixpence None The Richer - Divine Discontent
DYEAR=2002
DGENRE=Rock
TTITLE0=Breathe your Name
TTITLE1=Tonight
TTITLE2=Down and Out of Time
TTITLE3=Don't Dream It's Over
TTITLE4=Waiting on the Sun
TTITLE5=Still Burning
TTITLE6=Melody of You
TTITLE7=Paralyzed
TTITLE8=I've Been Waiting
TTITLE9=Eyes Wide Open
TTITLE10=Dizzy
TTITLE11=Tention Is a Passing Note
TTITLE12=A Million Parachutes
TTITLE13=Northern Lights (Japan Bonus Track)
EXTD=
EXTT0=
EXTT1=
EXTT2=
EXTT3=
EXTT4=
EXTT5=
EXTT6=
EXTT7=
EXTT8=
EXTT9=
EXTT10=
EXTT11=
EXTT12=
EXTT13=
PLAYORDER=
